<?xml version="1.0" encoding="iso-8859-1"?>
<!-- Generator: Adobe Illustrator 19.0.0, SVG Export Plug-In . SVG Version: 6.00 Build 0)  -->
<svg version="1.1" id="Capa_1" xmlns="http://www.w3.org/2000/svg" xmlns:xlink="http://www.w3.org/1999/xlink" x="0px" y="0px"
	 viewBox="0 0 512.001 512.001" style="enable-background:new 0 0 512.001 512.001;" xml:space="preserve">
<g>
	<g>
		<path d="M262.034,380.114H221c-5.522,0-10,4.478-10,10c0,5.522,4.478,10,10,10h41.034c5.522,0,10-4.478,10-10
			C272.034,384.592,267.557,380.114,262.034,380.114z"/>
	</g>
</g>
<g>
	<g>
		<path d="M291.001,380.116h-0.236c-5.522,0-10,4.477-10,10c0,5.522,4.478,10,10,10h0.236c5.522,0,10-4.478,10-10
			C301.001,384.594,296.523,380.116,291.001,380.116z"/>
	</g>
</g>
<g>
	<g>
		<path d="M256.001,153.001c-49.654,0-90.051,45.196-90.051,100.75c0,55.554,40.396,100.75,90.051,100.75
			c49.653,0,90.05-45.196,90.05-100.75C346.051,198.197,305.654,153.001,256.001,153.001z M256.001,334.501
			c-38.626,0-70.051-36.225-70.051-80.75c0-44.525,31.425-80.75,70.051-80.75c38.626,0,70.05,36.225,70.05,80.75
			C326.051,298.276,294.627,334.501,256.001,334.501z"/>
	</g>
</g>
<g>
	<g>
		<path d="M336.235,87.241h-0.236c-5.522,0-10,4.477-10,10c0,5.522,4.478,10,10,10h0.236c5.522,0,10-4.478,10-10
			C346.235,91.719,341.758,87.241,336.235,87.241z"/>
	</g>
</g>
<g>
	<g>
		<path d="M10.236,492.001h-0.235c-5.523,0-10,4.478-10,10c0,5.523,4.477,10,10,10h0.235c5.522,0,10-4.478,10-10
			C20.236,496.478,15.759,492.001,10.236,492.001z"/>
	</g>
</g>
<g>
	<g>
		<path d="M473.034,492.001h-82.057c4.684-7.911,8.18-16.851,11.056-24.22c0.426-1.092,0.839-2.145,1.244-3.171
			c7.436-2.918,12.723-10.15,12.723-18.609v-380c0-9.127-6.151-16.828-14.52-19.219l-21.143-26.959
			c4.644-0.863,8.161-4.93,8.161-9.823c0-5.523-4.478-10-10-10H133.502c-5.523,0-10,4.477-10,10c0,4.894,3.518,8.96,8.161,9.823
			l-21.142,26.959c-8.369,2.391-14.52,10.092-14.52,19.219v380c0,8.459,5.287,15.692,12.724,18.609
			c0.405,1.025,0.818,2.08,1.244,3.172c2.876,7.368,6.371,16.308,11.054,24.219H38.967c-5.522,0-10,4.478-10,10
			c0,5.523,4.478,10,10,10h434.067c5.522,0,10-4.478,10-10C483.034,496.479,478.556,492.001,473.034,492.001z M156.942,20h198.116
			l20.392,26.001H136.552L156.942,20z M116.001,446.001l-0.001-380h280v21.238h-31.034c-5.522,0-10,4.478-10,10
			c0,5.523,4.478,10,10,10H396l0.003,338.762h-0.002H116.001z M363.014,492.001H148.986c-6.835-0.022-13.803-15.137-18.212-26
			h250.453C376.818,476.864,369.848,491.98,363.014,492.001z"/>
	</g>
</g>
<g>
	<g>
		<path d="M502,492.001h-0.235c-5.522,0-10,4.478-10,10c0,5.523,4.478,10,10,10H502c5.523,0,10-4.478,10-10
			C512,496.478,507.522,492.001,502,492.001z"/>
	</g>
</g>
<g>
</g>
<g>
</g>
<g>
</g>
<g>
</g>
<g>
</g>
<g>
</g>
<g>
</g>
<g>
</g>
<g>
</g>
<g>
</g>
<g>
</g>
<g>
</g>
<g>
</g>
<g>
</g>
<g>
</g>
</svg>
